<svg width="33" height="27" viewBox="0 0 33 27" fill="none" xmlns="http://www.w3.org/2000/svg">
<g filter="url(#filter0_d_87_41)">
<path fill-rule="evenodd" clip-rule="evenodd" d="M2 2C2 0.89543 2.89543 0 4 0H28.4405C29.5451 0 30.4405 0.89543 30.4405 2C30.4405 3.10457 29.5451 4 28.4405 4H4C2.89543 4 2 3.10457 2 2ZM2 10.313C2 9.2084 2.89543 8.31297 4 8.31297H28.4405C29.5451 8.31297 30.4405 9.2084 30.4405 10.313C30.4405 11.4175 29.5451 12.313 28.4405 12.313H4C2.89543 12.313 2 11.4175 2 10.313ZM4 16.6257C2.89543 16.6257 2 17.5211 2 18.6257C2 19.7303 2.89543 20.6257 4 20.6257H28.4405C29.5451 20.6257 30.4405 19.7303 30.4405 18.6257C30.4405 17.5211 29.5451 16.6257 28.4405 16.6257H4Z" fill="#FFAFF7"/>
</g>
<defs>
<filter id="filter0_d_87_41" x="0" y="0" width="32.4406" height="26.6257" filterUnits="userSpaceOnUse" color-interpolation-filters="sRGB">
<feFlood flood-opacity="0" result="BackgroundImageFix"/>
<feColorMatrix in="SourceAlpha" type="matrix" values="0 0 0 0 0 0 0 0 0 0 0 0 0 0 0 0 0 0 127 0" result="hardAlpha"/>
<feOffset dy="4"/>
<feGaussianBlur stdDeviation="1"/>
<feComposite in2="hardAlpha" operator="out"/>
<feColorMatrix type="matrix" values="0 0 0 0 0 0 0 0 0 0 0 0 0 0 0 0 0 0 0.5 0"/>
<feBlend mode="normal" in2="BackgroundImageFix" result="effect1_dropShadow_87_41"/>
<feBlend mode="normal" in="SourceGraphic" in2="effect1_dropShadow_87_41" result="shape"/>
</filter>
</defs>
</svg>
