<svg width="90" height="51" viewBox="0 0 90 51" fill="none" xmlns="http://www.w3.org/2000/svg">
<g filter="url(#filter0_d_73_41)">
<path d="M12.025 24.288C10.6383 24.288 9.37967 24.0853 8.249 23.68C7.13967 23.2747 6.25434 22.7733 5.593 22.176C4.953 21.5573 4.633 20.9387 4.633 20.32C4.633 20.0213 4.70767 19.7013 4.857 19.36C5.02767 18.9973 5.25167 18.6987 5.529 18.464C5.80634 18.208 6.11567 18.08 6.457 18.08C6.79834 18.08 7.11834 18.208 7.417 18.464C7.71567 18.6987 8.057 18.9867 8.441 19.328C8.825 19.648 9.29434 19.936 9.849 20.192C10.4037 20.4267 11.0863 20.544 11.897 20.544C12.537 20.544 13.1237 20.448 13.657 20.256C14.2117 20.0427 14.649 19.7333 14.969 19.328C15.3103 18.9227 15.481 18.4 15.481 17.76C15.481 17.0773 15.2997 16.5013 14.937 16.032C14.5743 15.5627 14.0837 15.1573 13.465 14.816C12.8463 14.4747 12.1743 14.144 11.449 13.824C10.7237 13.504 9.98767 13.1627 9.241 12.8C8.51567 12.4373 7.84367 12 7.225 11.488C6.62767 10.976 6.137 10.3467 5.753 9.6C5.39034 8.85333 5.209 7.936 5.209 6.848C5.209 5.65333 5.433 4.65067 5.881 3.84C6.35034 3.02933 6.95834 2.37867 7.705 1.888C8.473 1.376 9.31567 1.01333 10.233 0.799999C11.1503 0.565332 12.0677 0.447998 12.985 0.447998C13.4757 0.447998 14.0517 0.490665 14.713 0.575998C15.3957 0.639999 16.0677 0.767999 16.729 0.959999C17.4117 1.152 17.9663 1.41867 18.393 1.76C18.841 2.08 19.065 2.50667 19.065 3.04C19.065 3.27467 19.001 3.56267 18.873 3.904C18.7663 4.24533 18.585 4.55467 18.329 4.832C18.0943 5.10933 17.785 5.248 17.401 5.248C17.0597 5.248 16.7183 5.152 16.377 4.96C16.057 4.74667 15.6303 4.544 15.097 4.352C14.585 4.13867 13.881 4.032 12.985 4.032C12.2383 4.032 11.5877 4.128 11.033 4.32C10.4783 4.512 10.0623 4.78933 9.785 5.152C9.50767 5.49333 9.369 5.93067 9.369 6.464C9.369 7.01867 9.55034 7.488 9.913 7.872C10.297 8.256 10.7877 8.59733 11.385 8.896C12.0037 9.19467 12.6757 9.49333 13.401 9.792C14.1263 10.0907 14.8517 10.4427 15.577 10.848C16.3237 11.232 17.0063 11.7013 17.625 12.256C18.2437 12.8107 18.7343 13.504 19.097 14.336C19.4597 15.1467 19.641 16.1493 19.641 17.344C19.641 18.8587 19.3103 20.1387 18.649 21.184C17.9877 22.208 17.081 22.9867 15.929 23.52C14.7983 24.032 13.497 24.288 12.025 24.288ZM29.6398 24.192C28.3171 24.192 27.0904 23.9573 25.9598 23.488C24.8291 22.9973 23.9224 22.2187 23.2398 21.152C22.5784 20.064 22.2478 18.624 22.2478 16.832V7.968C22.2478 6.176 22.5784 4.74667 23.2398 3.68C23.9224 2.592 24.8291 1.81333 25.9598 1.344C27.0904 0.853333 28.3278 0.608 29.6718 0.608C31.1651 0.608 32.4771 0.864 33.6078 1.376C34.7598 1.86667 35.6558 2.56 36.2958 3.456C36.9571 4.352 37.2878 5.42933 37.2878 6.688C37.2878 7.52 37.1171 8.07467 36.7758 8.352C36.4344 8.608 35.9118 8.736 35.2078 8.736C34.6318 8.736 34.1411 8.64 33.7358 8.448C33.3518 8.23467 33.1491 7.89333 33.1278 7.424C33.1278 7.168 33.0851 6.86933 32.9998 6.528C32.9358 6.16533 32.7971 5.81333 32.5838 5.472C32.3704 5.13067 32.0398 4.84267 31.5918 4.608C31.1651 4.37333 30.5678 4.256 29.7998 4.256C28.7118 4.256 27.8798 4.56533 27.3038 5.184C26.7278 5.78133 26.4398 6.70933 26.4398 7.968V16.832C26.4398 18.112 26.7278 19.0507 27.3038 19.648C27.9011 20.2453 28.7544 20.544 29.8638 20.544C30.5891 20.544 31.1651 20.4267 31.5918 20.192C32.0184 19.9573 32.3278 19.6693 32.5198 19.328C32.7331 18.9653 32.8718 18.592 32.9358 18.208C33.0211 17.824 33.0851 17.4613 33.1278 17.12C33.1704 16.608 33.3838 16.2667 33.7678 16.096C34.1518 15.904 34.6211 15.808 35.1758 15.808C35.9011 15.808 36.4344 15.9467 36.7758 16.224C37.1171 16.5013 37.2878 17.0453 37.2878 17.856C37.2878 19.136 36.9571 20.256 36.2958 21.216C35.6558 22.176 34.7598 22.912 33.6078 23.424C32.4558 23.936 31.1331 24.192 29.6398 24.192ZM47.3928 24.192C45.9848 24.192 44.7154 23.9573 43.5848 23.488C42.4541 22.9973 41.5474 22.2187 40.8648 21.152C40.2034 20.064 39.8728 18.624 39.8728 16.832V7.968C39.8728 6.176 40.2034 4.74667 40.8648 3.68C41.5474 2.592 42.4434 1.81333 43.5528 1.344C44.6834 0.853333 45.9634 0.608 47.3928 0.608C48.8008 0.608 50.0701 0.853333 51.2008 1.344C52.3528 1.81333 53.2594 2.592 53.9208 3.68C54.5821 4.74667 54.9128 6.176 54.9128 7.968V16.832C54.9128 18.624 54.5821 20.064 53.9208 21.152C53.2594 22.2187 52.3528 22.9973 51.2008 23.488C50.0701 23.9573 48.8008 24.192 47.3928 24.192ZM47.3928 20.544C48.4381 20.544 49.2594 20.2453 49.8568 19.648C50.4541 19.0507 50.7528 18.112 50.7528 16.832V7.968C50.7528 6.688 50.4541 5.74933 49.8568 5.152C49.2594 4.55467 48.4381 4.256 47.3928 4.256C46.3474 4.256 45.5261 4.55467 44.9288 5.152C44.3528 5.74933 44.0648 6.688 44.0648 7.968V16.832C44.0648 18.112 44.3528 19.0507 44.9288 19.648C45.5261 20.2453 46.3474 20.544 47.3928 20.544ZM64.499 24C63.9657 24 63.4857 23.8933 63.059 23.68C62.6323 23.4453 62.419 23.104 62.419 22.656V4.352H57.715C57.3097 4.352 56.9897 4.16 56.755 3.776C56.5203 3.392 56.403 2.95467 56.403 2.464C56.403 2.016 56.5097 1.6 56.723 1.216C56.9363 0.810666 57.267 0.608 57.715 0.608H71.251C71.7203 0.608 72.051 0.810666 72.243 1.216C72.4563 1.6 72.563 2.016 72.563 2.464C72.563 2.95467 72.4457 3.392 72.211 3.776C71.9977 4.16 71.6777 4.352 71.251 4.352H66.579V22.656C66.579 23.104 66.355 23.4453 65.907 23.68C65.4803 23.8933 65.011 24 64.499 24ZM76.769 24C76.2357 24 75.7557 23.8933 75.329 23.68C74.9023 23.4453 74.689 23.104 74.689 22.656V4.352H69.985C69.5797 4.352 69.2597 4.16 69.025 3.776C68.7903 3.392 68.673 2.95467 68.673 2.464C68.673 2.016 68.7797 1.6 68.993 1.216C69.2063 0.810666 69.537 0.608 69.985 0.608H83.521C83.9903 0.608 84.321 0.810666 84.513 1.216C84.7263 1.6 84.833 2.016 84.833 2.464C84.833 2.95467 84.7157 3.392 84.481 3.776C84.2677 4.16 83.9477 4.352 83.521 4.352H78.849V22.656C78.849 23.104 78.625 23.4453 78.177 23.68C77.7503 23.8933 77.281 24 76.769 24Z" fill="#FF00D6"/>
<path d="M2.98619 44C2.84752 44 2.72485 43.968 2.61819 43.904C2.51152 43.8293 2.45819 43.7227 2.45819 43.584V32.704C2.45819 32.5653 2.51152 32.464 2.61819 32.4C2.72485 32.336 2.84752 32.304 2.98619 32.304C3.11419 32.304 3.23152 32.336 3.33819 32.4C3.45552 32.464 3.51419 32.5653 3.51419 32.704V37.472H8.13819V32.704C8.13819 32.5653 8.19152 32.464 8.29819 32.4C8.40485 32.336 8.52752 32.304 8.66619 32.304C8.79419 32.304 8.91152 32.336 9.01819 32.4C9.13552 32.464 9.19419 32.5653 9.19419 32.704V43.584C9.19419 43.7227 9.13552 43.8293 9.01819 43.904C8.91152 43.968 8.79419 44 8.66619 44C8.52752 44 8.40485 43.968 8.29819 43.904C8.19152 43.8293 8.13819 43.7227 8.13819 43.584V38.4H3.51419V43.584C3.51419 43.7227 3.45552 43.8293 3.33819 43.904C3.23152 43.968 3.11419 44 2.98619 44ZM12.1101 44C11.9927 44 11.8807 43.968 11.7741 43.904C11.6781 43.8293 11.6301 43.7227 11.6301 43.584V32.72C11.6301 32.5813 11.6781 32.48 11.7741 32.416C11.8807 32.3413 11.9927 32.304 12.1101 32.304H17.8061C17.9447 32.304 18.0461 32.3573 18.1101 32.464C18.1741 32.56 18.2061 32.6667 18.2061 32.784C18.2061 32.912 18.1687 33.0293 18.0941 33.136C18.0301 33.232 17.9341 33.28 17.8061 33.28H12.6861V37.68H15.1981C15.3261 37.68 15.4221 37.728 15.4861 37.824C15.5607 37.92 15.5981 38.032 15.5981 38.16C15.5981 38.2667 15.5661 38.368 15.5021 38.464C15.4381 38.56 15.3367 38.608 15.1981 38.608H12.6861V43.024H17.8061C17.9341 43.024 18.0301 43.072 18.0941 43.168C18.1687 43.264 18.2061 43.3813 18.2061 43.52C18.2061 43.6373 18.1741 43.7493 18.1101 43.856C18.0461 43.952 17.9447 44 17.8061 44H12.1101ZM19.4671 44C19.3817 44 19.2911 43.984 19.1951 43.952C19.0991 43.9093 19.0191 43.856 18.9551 43.792C18.8911 43.7173 18.8591 43.6373 18.8591 43.552C18.8591 43.5093 18.8644 43.472 18.8751 43.44L22.2191 32.592C22.2617 32.4533 22.3417 32.3573 22.4591 32.304C22.5764 32.24 22.7044 32.208 22.8431 32.208C22.9924 32.208 23.1257 32.24 23.2431 32.304C23.3711 32.368 23.4511 32.464 23.4831 32.592L26.8111 43.44C26.8217 43.472 26.8271 43.504 26.8271 43.536C26.8271 43.6213 26.7951 43.7013 26.7311 43.776C26.6671 43.84 26.5871 43.8933 26.4911 43.936C26.3951 43.9787 26.2937 44 26.1871 44C26.1017 44 26.0217 43.9787 25.9471 43.936C25.8724 43.8933 25.8191 43.824 25.7871 43.728L25.0511 41.264H20.6351L19.8991 43.728C19.8671 43.824 19.8137 43.8933 19.7391 43.936C19.6644 43.9787 19.5737 44 19.4671 44ZM20.8911 40.352H24.7791L22.8431 33.904L20.8911 40.352ZM28.8444 44C28.6951 44 28.5778 43.9627 28.4924 43.888C28.4071 43.8133 28.3644 43.7173 28.3644 43.6V32.704C28.3644 32.5867 28.4071 32.4907 28.4924 32.416C28.5778 32.3413 28.6951 32.304 28.8444 32.304H31.6764C32.3058 32.304 32.8711 32.416 33.3724 32.64C33.8844 32.864 34.2844 33.2267 34.5724 33.728C34.8711 34.2293 35.0204 34.896 35.0204 35.728V40.576C35.0204 41.408 34.8711 42.0747 34.5724 42.576C34.2844 43.0773 33.8844 43.44 33.3724 43.664C32.8711 43.888 32.3058 44 31.6764 44H28.8444ZM29.4204 43.024H31.6764C32.3911 43.024 32.9511 42.8267 33.3564 42.432C33.7618 42.0373 33.9644 41.4187 33.9644 40.576V35.728C33.9644 34.8853 33.7618 34.2667 33.3564 33.872C32.9511 33.4773 32.3911 33.28 31.6764 33.28H29.4204V43.024ZM37.8456 44C37.7069 44 37.5842 43.968 37.4776 43.904C37.3709 43.8293 37.3176 43.7227 37.3176 43.584V32.704C37.3176 32.5973 37.3549 32.5067 37.4296 32.432C37.5149 32.3573 37.6269 32.3147 37.7656 32.304H40.7096C41.3282 32.304 41.8882 32.416 42.3896 32.64C42.8909 32.864 43.2856 33.2267 43.5736 33.728C43.8616 34.2187 44.0056 34.8747 44.0056 35.696V35.856C44.0056 36.688 43.8562 37.3547 43.5576 37.856C43.2696 38.3467 42.8696 38.7093 42.3576 38.944C41.8562 39.168 41.2962 39.28 40.6776 39.28H38.3736V43.584C38.3736 43.7227 38.3149 43.8293 38.1976 43.904C38.0909 43.968 37.9736 44 37.8456 44ZM38.3736 38.352H40.6776C41.3922 38.352 41.9469 38.1547 42.3416 37.76C42.7469 37.3547 42.9496 36.736 42.9496 35.904V35.728C42.9496 34.8853 42.7469 34.2667 42.3416 33.872C41.9469 33.4773 41.3922 33.28 40.6776 33.28H38.3736V38.352ZM46.2831 44C46.1444 44 46.0217 43.968 45.9151 43.904C45.8084 43.8293 45.7551 43.7227 45.7551 43.584V32.704C45.7551 32.5653 45.8084 32.464 45.9151 32.4C46.0217 32.336 46.1444 32.304 46.2831 32.304C46.4111 32.304 46.5284 32.336 46.6351 32.4C46.7524 32.464 46.8111 32.5653 46.8111 32.704V37.472H51.4351V32.704C51.4351 32.5653 51.4884 32.464 51.5951 32.4C51.7017 32.336 51.8244 32.304 51.9631 32.304C52.0911 32.304 52.2084 32.336 52.3151 32.4C52.4324 32.464 52.4911 32.5653 52.4911 32.704V43.584C52.4911 43.7227 52.4324 43.8293 52.3151 43.904C52.2084 43.968 52.0911 44 51.9631 44C51.8244 44 51.7017 43.968 51.5951 43.904C51.4884 43.8293 51.4351 43.7227 51.4351 43.584V38.4H46.8111V43.584C46.8111 43.7227 46.7524 43.8293 46.6351 43.904C46.5284 43.968 46.4111 44 46.2831 44ZM58.1269 44.096C57.5083 44.096 56.9483 43.984 56.4469 43.76C55.9456 43.536 55.5456 43.1733 55.2469 42.672C54.9483 42.1707 54.7989 41.504 54.7989 40.672V35.728C54.7989 34.896 54.9483 34.2293 55.2469 33.728C55.5456 33.2267 55.9403 32.864 56.4309 32.64C56.9323 32.416 57.4976 32.304 58.1269 32.304C58.7563 32.304 59.3216 32.416 59.8229 32.64C60.3243 32.864 60.7243 33.2267 61.0229 33.728C61.3216 34.2293 61.4709 34.896 61.4709 35.728V40.672C61.4709 41.504 61.3216 42.1707 61.0229 42.672C60.7243 43.1733 60.3243 43.536 59.8229 43.76C59.3216 43.984 58.7563 44.096 58.1269 44.096ZM58.1269 43.12C58.8416 43.12 59.3963 42.9227 59.7909 42.528C60.1963 42.1333 60.3989 41.5147 60.3989 40.672V35.728C60.3989 34.8853 60.1963 34.2667 59.7909 33.872C59.3963 33.4773 58.8416 33.28 58.1269 33.28C57.4123 33.28 56.8576 33.4773 56.4629 33.872C56.0683 34.2667 55.8709 34.8853 55.8709 35.728V40.672C55.8709 41.5147 56.0683 42.1333 56.4629 42.528C56.8576 42.9227 57.4123 43.12 58.1269 43.12ZM64.2987 44C64.16 44 64.0374 43.968 63.9307 43.904C63.824 43.8293 63.7707 43.7227 63.7707 43.584V32.704C63.7707 32.5547 63.824 32.4533 63.9307 32.4C64.0374 32.336 64.16 32.304 64.2987 32.304C64.4267 32.304 64.5387 32.3413 64.6347 32.416C64.7307 32.48 64.8214 32.5707 64.9067 32.688C64.992 32.7947 65.0667 32.9173 65.1307 33.056L69.4507 41.552V32.704C69.4507 32.5653 69.504 32.464 69.6107 32.4C69.7174 32.336 69.84 32.304 69.9787 32.304C70.1067 32.304 70.224 32.336 70.3307 32.4C70.448 32.464 70.5067 32.5653 70.5067 32.704V43.584C70.5067 43.7227 70.448 43.8293 70.3307 43.904C70.224 43.968 70.1067 44 69.9787 44C69.8294 44 69.6907 43.9413 69.5627 43.824C69.4454 43.696 69.3494 43.552 69.2747 43.392L64.8267 34.736V43.584C64.8267 43.7227 64.768 43.8293 64.6507 43.904C64.544 43.968 64.4267 44 64.2987 44ZM73.4226 44C73.3052 44 73.1932 43.968 73.0866 43.904C72.9906 43.8293 72.9426 43.7227 72.9426 43.584V32.72C72.9426 32.5813 72.9906 32.48 73.0866 32.416C73.1932 32.3413 73.3052 32.304 73.4226 32.304H79.1186C79.2572 32.304 79.3586 32.3573 79.4226 32.464C79.4866 32.56 79.5186 32.6667 79.5186 32.784C79.5186 32.912 79.4812 33.0293 79.4066 33.136C79.3426 33.232 79.2466 33.28 79.1186 33.28H73.9986V37.68H76.5106C76.6386 37.68 76.7346 37.728 76.7986 37.824C76.8732 37.92 76.9106 38.032 76.9106 38.16C76.9106 38.2667 76.8786 38.368 76.8146 38.464C76.7506 38.56 76.6492 38.608 76.5106 38.608H73.9986V43.024H79.1186C79.2466 43.024 79.3426 43.072 79.4066 43.168C79.4812 43.264 79.5186 43.3813 79.5186 43.52C79.5186 43.6373 79.4866 43.7493 79.4226 43.856C79.3586 43.952 79.2572 44 79.1186 44H73.4226ZM83.7076 44.112C83.0249 44.112 82.4382 44.0107 81.9476 43.808C81.4569 43.5947 81.0782 43.3547 80.8116 43.088C80.5556 42.8107 80.4276 42.576 80.4276 42.384C80.4276 42.2987 80.4489 42.208 80.4916 42.112C80.5449 42.016 80.6089 41.9413 80.6836 41.888C80.7582 41.824 80.8329 41.792 80.9076 41.792C81.0142 41.792 81.1209 41.8613 81.2276 42C81.3449 42.128 81.4942 42.2827 81.6756 42.464C81.8676 42.6347 82.1182 42.7893 82.4276 42.928C82.7369 43.056 83.1422 43.12 83.6436 43.12C84.1449 43.12 84.5716 43.04 84.9236 42.88C85.2756 42.7093 85.5476 42.464 85.7396 42.144C85.9316 41.8133 86.0276 41.4027 86.0276 40.912C86.0276 40.4 85.9316 39.9893 85.7396 39.68C85.5476 39.3707 85.2916 39.1147 84.9716 38.912C84.6622 38.7093 84.3209 38.5387 83.9476 38.4C83.5742 38.2613 83.1956 38.1173 82.8116 37.968C82.4382 37.8187 82.0916 37.6373 81.7716 37.424C81.4516 37.2 81.1956 36.912 81.0036 36.56C80.8116 36.1973 80.7156 35.7387 80.7156 35.184C80.7156 34.608 80.8222 34.1333 81.0356 33.76C81.2489 33.376 81.5209 33.0773 81.8516 32.864C82.1929 32.6507 82.5609 32.5013 82.9556 32.416C83.3502 32.32 83.7342 32.272 84.1076 32.272C84.4062 32.272 84.7102 32.2987 85.0196 32.352C85.3396 32.3947 85.6329 32.4587 85.8996 32.544C86.1662 32.6293 86.3796 32.736 86.5396 32.864C86.7102 32.9813 86.7956 33.1147 86.7956 33.264C86.7956 33.328 86.7742 33.408 86.7316 33.504C86.6996 33.5893 86.6516 33.6693 86.5876 33.744C86.5236 33.8187 86.4382 33.856 86.3316 33.856C86.2356 33.856 86.1022 33.808 85.9316 33.712C85.7609 33.6053 85.5262 33.504 85.2276 33.408C84.9396 33.3013 84.5609 33.248 84.0916 33.248C83.7076 33.248 83.3342 33.3013 82.9716 33.408C82.6196 33.5147 82.3316 33.7067 82.1076 33.984C81.8836 34.2507 81.7716 34.6187 81.7716 35.088C81.7716 35.5147 81.8676 35.8613 82.0596 36.128C82.2622 36.384 82.5182 36.592 82.8276 36.752C83.1476 36.912 83.4942 37.0613 83.8676 37.2C84.2409 37.328 84.6142 37.4773 84.9876 37.648C85.3716 37.808 85.7182 38.016 86.0276 38.272C86.3476 38.5173 86.6036 38.8427 86.7956 39.248C86.9876 39.6533 87.0836 40.176 87.0836 40.816C87.0836 41.5733 86.9396 42.1973 86.6516 42.688C86.3636 43.168 85.9636 43.5253 85.4516 43.76C84.9502 43.9947 84.3689 44.112 83.7076 44.112Z" fill="white"/>
</g>
<defs>
<filter id="filter0_d_73_41" x="0.45813" y="0.447998" width="88.6255" height="49.664" filterUnits="userSpaceOnUse" color-interpolation-filters="sRGB">
<feFlood flood-opacity="0" result="BackgroundImageFix"/>
<feColorMatrix in="SourceAlpha" type="matrix" values="0 0 0 0 0 0 0 0 0 0 0 0 0 0 0 0 0 0 127 0" result="hardAlpha"/>
<feOffset dy="4"/>
<feGaussianBlur stdDeviation="1"/>
<feComposite in2="hardAlpha" operator="out"/>
<feColorMatrix type="matrix" values="0 0 0 0 0 0 0 0 0 0 0 0 0 0 0 0 0 0 0.5 0"/>
<feBlend mode="normal" in2="BackgroundImageFix" result="effect1_dropShadow_73_41"/>
<feBlend mode="normal" in="SourceGraphic" in2="effect1_dropShadow_73_41" result="shape"/>
</filter>
</defs>
</svg>
